PathFileType	4	(X/Y/Z)	C:\Users\Basilio\Documents\Thesis Gigler\squatting_fais\c3dfiles\054\SJ_pre3\markers_experimental.trc
DataRate	CameraRate	NumFrames	NumMarkers	Units	OrigDataRate	OrigDataStartFrame	OrigNumFrames
200.000000	200.000000	4	61	mm	200.000000	224	1794
Frame#	Time	FHD			LBHD			RBHD			C7			T10			CLAV			LSHO			LUUPA			LMUPA			LDUPA			LLEP			LMEP			LRAD			LUL			LRFIN			RSHO			RUPA1			RMUPA			RDUPA			RLEP			RMEP			RRAD			RUL			RUFIN			LASI			RASI			USACR			LSACR			RSACR			LTHI1			LTHI2			LTHI3			LTHI4			LLFC			LMFC			LTIB1			LTIB2			LTIB3			LTIB4			LLMAL			LMMAL			LHEE			LMT1			LMT2			LMT5			RTHI			RTHI2			RTHI3			RTHI4			RLFC			RMFC			RTIB1			RTIB2			RTIB3			RTIB4			RLMAL			RMMAL			RHEE			RMT1			RMT2			RMT5			
		X1	Y1	Z1	X2	Y2	Z2	X3	Y3	Z3	X4	Y4	Z4	X5	Y5	Z5	X6	Y6	Z6	X7	Y7	Z7	X8	Y8	Z8	X9	Y9	Z9	X10	Y10	Z10	X11	Y11	Z11	X12	Y12	Z12	X13	Y13	Z13	X14	Y14	Z14	X15	Y15	Z15	X16	Y16	Z16	X17	Y17	Z17	X18	Y18	Z18	X19	Y19	Z19	X20	Y20	Z20	X21	Y21	Z21	X22	Y22	Z22	X23	Y23	Z23	X24	Y24	Z24	X25	Y25	Z25	X26	Y26	Z26	X27	Y27	Z27	X28	Y28	Z28	X29	Y29	Z29	X30	Y30	Z30	X31	Y31	Z31	X32	Y32	Z32	X33	Y33	Z33	X34	Y34	Z34	X35	Y35	Z35	X36	Y36	Z36	X37	Y37	Z37	X38	Y38	Z38	X39	Y39	Z39	X40	Y40	Z40	X41	Y41	Z41	X42	Y42	Z42	X43	Y43	Z43	X44	Y44	Z44	X45	Y45	Z45	X46	Y46	Z46	X47	Y47	Z47	X48	Y48	Z48	X49	Y49	Z49	X50	Y50	Z50	X51	Y51	Z51	X52	Y52	Z52	X53	Y53	Z53	X54	Y54	Z54	X55	Y55	Z55	X56	Y56	Z56	X57	Y57	Z57	X58	Y58	Z58	X59	Y59	Z59	X60	Y60	Z60	X61	Y61	Z61	

225	1.12	-206.6589355468751	1747.533813476563	-883.5697021484377	-354.0152587890626	1669.176147460938	-961.4656372070315	-376.2817382812501	1662.8125	-823.113708496094	-387.8226013183595	1518.281005859375	-883.4840087890627	-431.3774719238282	1180.573974609375	-898.192565917969	-249.0167846679688	1448.390258789063	-885.6533203125002	-306.0638732910157	1515.472534179688	-1043.490600585938	-402.0247497558595	1386.425903320313	-1219.650146484375	-364.6770629882813	1350.781127929688	-1225.935668945313	-410.8914489746095	1330.847534179688	-1261.201416015625	-404.8240356445314	1266.853759765625	-1281.474731445313	-477.6280212402345	1249.075927734375	-1233.364379882813	-368.4417724609376	1058.633422851563	-1123.886474609375	-323.6800231933594	1023.734313964844	-1176.5068359375	-309.7983703613282	1073.867553710938	-1092.808959960938	-304.9570312500001	1504.425659179688	-722.3966064453126	-409.1925659179689	1363.531860351563	-555.5444335937501	-382.9905090332032	1322.1767578125	-551.6089477539064	-433.7665100097657	1306.852661132813	-521.5233764648439	-442.0091247558595	1257.089477539063	-506.7117919921876	-505.9022827148439	1249.409423828125	-566.0333862304689	-393.4143066406251	1054.528564453125	-688.7810668945314	-329.4755859375001	1076.044799804688	-703.6680908203126	-353.6743164062501	1024.378662109375	-626.0276489257814	-221.0813140869141	1014.963928222656	-1024.825317382813	-231.0301971435547	1014.330200195313	-759.7971801757814	-420.2247009277345	1088.161743164063	-897.053161621094	-421.6622314453126	1056.101806640625	-924.8209228515627	-421.671600341797	1053.710083007813	-869.4943847656252	-346.1065063476563	802.6477050781252	-1123.745971679688	-321.6839904785157	721.8693237304689	-1139.508056640625	-274.8352661132813	722.0525512695314	-1140.574462890625	-353.7457885742188	670.2011108398439	-1127.251831054688	-365.8447265625001	513.7322998046876	-1131.724609375	-304.0397033691407	480.4339599609376	-1014.608215332031	-324.8061523437501	345.0283508300782	-1134.463134765625	-391.6259155273439	312.9548950195313	-1184.884765625	-347.3838500976563	304.5970153808594	-1172.610595703125	-346.7528991699219	221.7101745605469	-1156.600463867188	-419.7178955078126	89.47373962402345	-1208.413696289063	-362.5903930664063	98.49591827392581	-1128.5693359375	-468.0929260253907	51.5458450317383	-1140.260375976563	-250.815658569336	55.03729629516603	-1186.973754882813	-258.8257141113282	57.75838088989259	-1236.0224609375	-320.6524047851563	36.1394386291504	-1274.267211914063	-367.2408142089844	730.1663818359376	-681.0546875000001	-339.6558227539063	670.8546142578126	-670.7850341796876	-306.7393493652344	667.2884521484376	-669.5346069335939	-375.9716186523438	597.3587036132814	-688.8715209960939	-400.0422668457032	505.0286254882814	-686.4234008789064	-318.6719055175782	485.7450561523439	-796.6453247070315	-351.2361145019532	399.4746398925782	-659.2521362304689	-430.7486572265626	331.8257141113282	-635.9337158203126	-384.6699218750001	323.9856872558594	-629.6679077148439	-364.7860412597657	270.8062133789063	-638.8297119140626	-426.010955810547	92.20119476318361	-603.9334716796876	-365.8120422363282	100.4029312133789	-677.3306884765626	-468.3083496093751	48.20921325683595	-671.5842285156251	-248.0678100585938	53.1461524963379	-616.5643920898439	-261.2750549316407	55.72624588012697	-570.7055053710939	-320.0358276367188	33.16501998901368	-536.2721557617189	
226	1.125	-206.4662322998047	1747.386840820313	-883.578796386719	-353.8291931152344	1669.21875	-961.4732666015627	-376.1212158203126	1662.8408203125	-823.1124267578127	-387.7271423339845	1518.326416015625	-883.4583129882815	-431.3298339843751	1180.6181640625	-898.1729736328127	-248.8463134765626	1448.258056640625	-885.6804809570315	-306.0288085937501	1515.46484375	-1043.515258789063	-402.0480957031251	1386.349853515625	-1219.66357421875	-364.8755798339844	1350.626586914063	-1225.980224609375	-411.010955810547	1330.748046875	-1261.145263671875	-404.8680419921876	1266.771850585938	-1281.4111328125	-477.6749267578126	1249.04248046875	-1233.286010742188	-368.5252685546876	1058.494018554688	-1123.891845703125	-323.8314208984376	1023.579833984375	-1176.500610351563	-309.8687744140626	1073.75537109375	-1092.840454101563	-304.8539733886719	1504.453979492188	-722.3828125000001	-409.1880493164064	1363.5498046875	-555.5711669921876	-383.0086364746094	1322.218994140625	-551.6059570312501	-433.7903747558595	1306.886108398438	-521.5796508789064	-442.0403442382814	1257.099853515625	-506.764373779297	-505.944061279297	1249.465576171875	-566.0550537109376	-393.7219543457032	1054.562377929688	-689.1466674804689	-329.4855651855469	1075.922241210938	-703.6562500000001	-353.7967529296876	1024.358276367188	-626.0115966796876	-221.1331024169922	1014.91357421875	-1024.872924804688	-231.023666381836	1014.344909667969	-759.7973632812501	-420.2571411132814	1088.166137695313	-897.0539550781252	-421.665496826172	1056.102172851563	-924.816345214844	-421.7102966308595	1053.713134765625	-869.4822998046877	-346.0296936035157	802.461120605469	-1123.800415039063	-321.5310974121094	721.9393310546876	-1139.582275390625	-274.9024963378907	722.0403442382814	-1140.563598632813	-353.5652770996094	670.1143188476564	-1127.25634765625	-365.8914184570313	513.7302856445314	-1131.733642578125	-304.0571899414063	480.4124755859376	-1014.642639160156	-324.8008117675782	345.0266113281251	-1134.4599609375	-391.6457519531251	312.9346313476563	-1184.877075195313	-347.2827758789063	304.6716308593751	-1172.623168945313	-346.7228698730469	221.7268829345704	-1156.629272460938	-419.7408447265626	89.49413299560548	-1208.401977539063	-362.6150207519532	98.52957153320315	-1128.55419921875	-468.0740966796876	51.52624511718751	-1140.2587890625	-250.8264617919922	55.07024383544923	-1186.961791992188	-258.8475036621094	57.73654556274415	-1235.974853515625	-320.7128601074219	36.15934371948243	-1274.256225585938	-367.2529602050782	730.1364746093751	-681.0120239257814	-339.6578674316407	670.8543701171876	-670.7848510742189	-306.7386474609376	667.2819824218751	-669.5458984375001	-375.9645690917969	597.3617553710939	-688.8653564453126	-400.0404663085939	505.0264282226564	-686.4223022460939	-318.6775817871094	485.770233154297	-796.6433715820315	-351.3520507812501	399.5016479492189	-659.2128906250001	-430.7460021972657	331.8246154785157	-635.9312744140626	-384.6923217773439	323.9661254882813	-629.7482299804689	-364.8746643066407	270.8239440917969	-638.7437133789064	-426.0065917968751	92.15100097656251	-603.9344482421876	-365.7797546386719	100.4254684448242	-677.3367919921876	-468.3018493652345	48.21328353881837	-671.5670776367189	-248.0824432373047	53.11152267456056	-616.5588378906251	-261.2834472656251	55.73039627075197	-570.6872558593751	-320.0244140625001	33.16120529174805	-536.2621459960939	
227	1.13	-206.4117126464844	1747.43798828125	-883.6083984375002	-353.6743469238282	1669.189331054688	-961.5046997070315	-375.9951171875001	1662.872192382813	-823.1004028320315	-387.6217346191407	1518.36279296875	-883.4611816406252	-431.3881225585939	1180.626220703125	-898.1375732421877	-248.804672241211	1448.246704101563	-885.7121582031252	-305.9396057128907	1515.391967773438	-1043.540405273438	-402.0307006835939	1386.226440429688	-1219.658447265625	-364.6263122558594	1350.706909179688	-1225.963500976563	-410.9536743164064	1330.630126953125	-1261.102416992188	-404.9212341308595	1266.702392578125	-1281.344360351563	-477.6968383789064	1248.989501953125	-1233.247924804688	-368.6390075683594	1058.319091796875	-1123.884399414063	-323.8963012695313	1023.460876464844	-1176.446166992188	-309.9259033203126	1073.672241210938	-1092.8369140625	-304.6696777343751	1504.494995117188	-722.4071044921876	-409.1903686523439	1363.564697265625	-555.5974731445314	-383.0067138671876	1322.21484375	-551.5925292968751	-433.8584289550782	1306.906860351563	-521.6604614257814	-442.125213623047	1257.095703125	-506.8999023437501	-505.997528076172	1249.544067382813	-566.1775512695314	-393.7709350585939	1054.558715820313	-689.2018432617189	-329.5326232910157	1075.878173828125	-703.6339111328126	-353.8505249023438	1024.361083984375	-626.0377197265626	-221.2097167968751	1014.8671875	-1024.906494140625	-231.0376129150391	1014.330200195313	-759.8113403320314	-420.2845458984376	1088.168212890625	-897.0499267578127	-421.7374877929689	1056.108154296875	-924.8294067382815	-421.7082519531251	1053.713012695313	-869.4825439453127	-346.1851501464844	802.636413574219	-1123.734008789063	-321.5637817382813	721.9217529296876	-1139.58056640625	-274.8712768554688	722.0706176757814	-1140.563232421875	-353.6161499023438	670.1041259765626	-1127.229370117188	-365.8600463867188	513.7209472656251	-1131.731567382813	-304.0545043945313	480.404998779297	-1014.666076660156	-324.8229064941407	345.0511169433594	-1134.457397460938	-391.3801574707032	312.9919738769532	-1184.796630859375	-347.4031982421876	304.6419677734376	-1172.60791015625	-346.6900939941407	221.7220306396485	-1156.602661132813	-419.4160766601564	89.35054779052736	-1208.505249023438	-362.5916442871094	98.49810791015628	-1128.561401367188	-468.0790100097657	51.53007125854494	-1140.245849609375	-250.8182220458985	55.06280899047853	-1186.963500976563	-258.8305664062501	57.75550460815431	-1236.037231445313	-320.6712951660157	36.14054107666016	-1274.276733398438	-367.2825012207032	730.1256103515626	-681.0007324218751	-339.6602783203126	670.8370971679689	-670.7715454101564	-306.7705993652344	667.2786254882814	-669.5232543945314	-375.9672851562501	597.3413696289064	-688.9194946289064	-400.0556945800782	505.0220031738282	-686.4046630859376	-318.6780395507813	485.7708435058595	-796.6435546875002	-351.3230590820313	399.477264404297	-659.2279663085939	-430.7507629394532	331.8229370117188	-635.9311523437501	-384.6917114257814	323.9425354003907	-629.7539062500001	-364.8630676269532	270.8011779785157	-638.7623901367189	-425.9750366210939	92.17842864990236	-603.9731445312501	-365.8228759765626	100.4406280517578	-677.3367919921876	-468.3146972656251	48.22424316406251	-671.5650024414064	-248.0589141845704	53.158016204834	-616.5629272460939	-261.2400817871094	55.76189041137697	-570.6889648437501	-320.0233764648438	33.15877532958985	-536.2940063476564	
228	1.135	-206.288558959961	1747.324096679688	-883.656188964844	-353.5979614257813	1669.22998046875	-961.5123291015627	-375.9374084472657	1662.912841796875	-823.1080322265627	-387.6239318847657	1518.408325195313	-883.458679199219	-431.4159240722657	1180.658447265625	-898.1372070312502	-248.765365600586	1448.236083984375	-885.6789550781252	-305.8450622558594	1515.398803710938	-1043.5673828125	-401.994354248047	1386.168334960938	-1219.613037109375	-364.7502136230469	1350.636474609375	-1225.93896484375	-411.0030517578126	1330.562133789063	-1261.063354492188	-404.9538879394532	1266.626220703125	-1281.272583007813	-477.7673645019532	1248.93798828125	-1233.157958984375	-368.6755371093751	1058.196655273438	-1123.86083984375	-323.9784851074219	1023.333740234375	-1176.476806640625	-310.0392150878907	1073.59521484375	-1092.862915039063	-304.4764709472657	1504.509155273438	-722.4286499023439	-409.212615966797	1363.575439453125	-555.6239013671876	-383.0934753417969	1322.258178710938	-551.6427612304689	-433.8607482910157	1306.935424804688	-521.6842041015626	-442.1562500000001	1257.1083984375	-506.9542541503907	-506.0574951171876	1249.604125976563	-566.2620239257814	-393.8866577148439	1054.538330078125	-689.2207641601564	-329.5497741699219	1075.865844726563	-703.5750732421876	-354.0934143066407	1024.334228515625	-626.0242919921876	-221.2787628173829	1014.832641601563	-1024.930541992188	-231.0396575927735	1014.344055175781	-759.7240600585939	-420.3610229492189	1088.156860351563	-897.0231933593752	-421.8425292968751	1056.122802734375	-924.8286132812502	-421.6706542968751	1053.689453125	-869.491882324219	-346.2124023437501	802.651794433594	-1123.773559570313	-321.6051025390626	721.9223022460939	-1139.565185546875	-275.1994323730469	722.2121582031251	-1140.60498046875	-353.6185607910157	670.1045532226564	-1127.3037109375	-365.8450317382813	513.7239379882814	-1131.743041992188	-304.0428161621094	480.4064025878907	-1014.649475097656	-324.7973632812501	345.0073242187501	-1134.464111328125	-391.6077270507814	312.9234313964844	-1184.894287109375	-347.3430480957032	304.6289062500001	-1172.610229492188	-346.7578125000001	221.7106323242188	-1156.670288085938	-419.6832275390626	89.46809387207033	-1208.408569335938	-362.6199645996094	98.51638031005862	-1128.553588867188	-468.0975646972657	51.50134277343751	-1140.268676757813	-250.8283233642579	55.06880950927736	-1186.954467773438	-258.8526000976563	57.73080444335939	-1236.046997070313	-320.7217407226563	36.15808105468751	-1274.251342773438	-367.3161621093751	730.1148071289064	-680.9916381835939	-339.6651916503907	670.8435668945314	-670.7645874023439	-306.7675476074219	667.2802734375001	-669.5314941406251	-375.9796752929688	597.3588256835939	-688.8798217773439	-400.1061096191407	505.0173950195314	-686.4245605468751	-318.8444824218751	485.7156982421876	-796.636657714844	-351.3426513671876	399.4741210937501	-659.2341918945314	-430.7467041015626	331.7992858886719	-635.9289550781251	-384.7642211914064	323.9220581054688	-629.7012939453126	-364.9197082519532	270.7790527343751	-638.7774047851564	-426.016571044922	92.18020629882814	-603.9434814453126	-365.7995605468751	100.4076766967774	-677.3262939453126	-468.3104858398439	48.21904373168947	-671.5693969726564	-248.0919342041016	53.18130493164064	-616.5604858398439	-261.2731323242188	55.74479293823244	-570.7158813476564	-320.0193481445313	33.15777206420899	-536.2836914062501	
